<svg xmlns="http://www.w3.org/2000/svg" data-name="Layer 5" viewBox="0 0 100 125" x="0px" y="0px"><path d="M81.936,64.768c-3.554,1.395-5.385,1.093-14.587,1.093-6.682,0-12.408-4.156-14.74-10.016h6.488c1.836,2.585,4.847,4.28,8.252,4.28h8.815c5.536,0,10.124-4.516,10.124-10.124s-4.583-10.124-10.124-10.124h-8.815c-3.405,0-6.416,1.695-8.252,4.279h-6.488c2.332-5.86,8.058-10.016,14.74-10.016,8.944,0,11.007-.312,14.587,1.092,13.422,5.265,13.422,24.271,0,29.536Zm-11.668-14.768c0-1.582-1.287-2.868-2.868-2.868H32.6c-1.581,0-2.868,1.287-2.868,2.868s1.287,2.868,2.868,2.868h34.799c1.582,0,2.868-1.287,2.868-2.868Zm-62.291,0c0,8.745,7.115,15.861,15.86,15.861,9.202,0,11.033,.302,14.588-1.093,4.084-1.602,7.346-4.849,8.967-8.924h-6.488c-1.898,2.671-4.955,4.28-8.252,4.28h-8.815c-5.582,0-10.124-4.542-10.124-10.124s4.541-10.124,10.124-10.124h8.815c3.304,0,6.358,1.614,8.251,4.279h6.488c-1.621-4.074-4.883-7.321-8.967-8.923-3.58-1.405-5.643-1.092-14.588-1.092-8.745,0-15.86,7.115-15.86,15.861Z"/><text x="0" y="115" fill="#000000" font-size="5px" font-weight="bold" font-family="'Helvetica Neue', Helvetica, Arial-Unicode, Arial, Sans-serif">Created by nasril</text><text x="0" y="120" fill="#000000" font-size="5px" font-weight="bold" font-family="'Helvetica Neue', Helvetica, Arial-Unicode, Arial, Sans-serif">from the Noun Project</text></svg>